<svg style="max-height: 500px" version="1.0" xmlns="http://www.w3.org/2000/svg" viewBox="61.788160000000005 91.5584866365845 1126.2361600000002 217.63276640055537" preserveAspectRatio="xMidYMid meet" width="1126.2361600000002" height="217.63276640055537">
    <metadata>
        Created by potrace 1.15, written by Peter Selinger 2001-2017
    </metadata>
    <g transform="translate(0.000000,495.000000) scale(0.100000,-0.100000)" fill="#000000" stroke="none">
        <path d="M600 2935 l0 -1105 5680 0 5680 0 0 1105 0 1105 -677 0 -678 -1 -20&#10;-32 c-26 -42 -76 -49 -111 -16 -13 12 -24 28 -24 36 0 11 -184 13 -1047 13&#10;l-1048 0 -17 -30 c-30 -53 -111 -53 -131 0 l-11 30 -1051 0 -1051 0 -11 -30&#10;c-20 -53 -101 -53 -131 0 l-17 30 -1047 0 c-864 0 -1048 -2 -1048 -13 0 -8&#10;-11 -24 -24 -36 -35 -33 -85 -26 -111 16 l-20 32 -1047 1 c-723 0 -1048 -3&#10;-1048 -10 0 -22 -50 -60 -78 -60 -31 0 -72 32 -72 55 0 13 -58 15 -420 15&#10;l-420 0 0 -1105z m248 989 c20 -14 22 -24 22 -98 0 -50 -5 -87 -12 -94 -7 -7&#10;-36 -12 -65 -12 -65 0 -73 12 -73 109 0 58 4 75 20 91 24 24 77 26 108 4z&#10;m284 -1 c15 -13 18 -31 18 -98 0 -50 -5 -86 -12 -93 -7 -7 -36 -12 -65 -12&#10;-65 0 -73 12 -73 109 0 58 4 75 20 91 25 25 86 27 112 3z m282 1 c20 -19 23&#10;-173 4 -192 -7 -7 -33 -12 -58 -12 -25 0 -51 5 -58 12 -8 8 -12 45 -12 100 0&#10;72 3 89 18 97 26 16 89 13 106 -5z m281 2 c15 -11 20 -30 23 -85 6 -97 -10&#10;-121 -76 -121 -27 0 -53 5 -60 12 -19 19 -16 173 4 192 19 20 84 21 109 2z&#10;m285 -6 c16 -16 20 -33 20 -91 0 -97 -8 -109 -73 -109 -29 0 -58 5 -65 12 -19&#10;19 -16 167 5 190 23 25 87 24 113 -2z m280 0 c16 -16 20 -33 20 -91 0 -97 -8&#10;-109 -73 -109 -29 0 -58 5 -65 12 -7 7 -12 44 -12 94 0 74 2 84 22 98 31 22&#10;84 20 108 -4z m278 4 c20 -14 22 -24 22 -98 0 -50 -5 -87 -12 -94 -7 -7 -36&#10;-12 -65 -12 -65 0 -73 12 -73 109 0 58 4 75 20 91 24 24 77 26 108 4z m284 -1&#10;c15 -13 18 -31 18 -98 0 -50 -5 -86 -12 -93 -7 -7 -36 -12 -65 -12 -65 0 -73&#10;12 -73 109 0 58 4 75 20 91 25 25 86 27 112 3z m282 1 c20 -19 23 -173 4 -192&#10;-7 -7 -33 -12 -60 -12 -66 0 -82 24 -76 121 3 55 8 74 23 85 25 19 90 18 109&#10;-2z m277 6 c17 -9 19 -22 19 -98 0 -55 -4 -92 -12 -100 -7 -7 -33 -12 -58 -12&#10;-25 0 -51 5 -58 12 -19 19 -16 173 4 192 18 18 76 21 105 6z m289 -10 c16 -16&#10;20 -33 20 -91 0 -97 -8 -109 -73 -109 -29 0 -58 5 -65 12 -19 19 -16 167 5&#10;190 23 25 87 24 113 -2z m280 0 c16 -16 20 -33 20 -91 0 -97 -8 -109 -73 -109&#10;-29 0 -58 5 -65 12 -7 7 -12 44 -12 94 0 74 2 84 22 98 31 22 84 20 108 -4z&#10;m278 4 c19 -13 22 -24 22 -90 0 -103 -7 -114 -75 -114 -68 0 -75 11 -75 114 0&#10;66 3 77 22 90 12 9 36 16 53 16 17 0 41 -7 53 -16z m284 -1 c15 -13 18 -31 18&#10;-98 0 -50 -5 -86 -12 -93 -7 -7 -36 -12 -65 -12 -65 0 -73 12 -73 109 0 58 4&#10;75 20 91 25 25 86 27 112 3z m280 0 c15 -13 18 -31 18 -98 0 -50 -5 -86 -12&#10;-93 -7 -7 -33 -12 -60 -12 -66 0 -82 24 -76 121 3 55 8 74 23 85 26 19 84 18&#10;107 -3z m279 7 c17 -9 19 -22 19 -98 0 -55 -4 -92 -12 -100 -7 -7 -33 -12 -58&#10;-12 -25 0 -51 5 -58 12 -8 8 -12 45 -12 100 0 72 3 89 18 97 22 14 78 14 103&#10;1z m290 -11 c19 -19 21 -30 17 -100 -2 -57 -7 -83 -18 -89 -21 -14 -104 -12&#10;-118 2 -19 19 -16 167 5 190 23 26 87 24 114 -3z m279 1 c16 -16 20 -33 20&#10;-91 0 -97 -8 -109 -73 -109 -29 0 -58 5 -65 12 -7 7 -12 44 -12 94 0 74 2 84&#10;22 98 31 22 84 20 108 -4z m278 4 c19 -13 22 -24 22 -90 0 -103 -7 -114 -75&#10;-114 -68 0 -75 11 -75 114 0 66 3 77 22 90 12 9 36 16 53 16 17 0 41 -7 53&#10;-16z m280 0 c20 -14 22 -24 22 -98 0 -50 -5 -87 -12 -94 -7 -7 -36 -12 -65&#10;-12 -65 0 -73 12 -73 109 0 58 4 75 20 91 24 24 77 26 108 4z m284 -1 c15 -13&#10;18 -31 18 -98 0 -50 -5 -86 -12 -93 -14 -14 -97 -16 -118 -2 -11 6 -16 32 -18&#10;89 -4 70 -2 81 17 100 26 26 87 28 113 4z m282 1 c20 -19 23 -173 4 -192 -7&#10;-7 -33 -12 -58 -12 -25 0 -51 5 -58 12 -8 8 -12 45 -12 100 0 72 3 89 18 97&#10;26 16 89 13 106 -5z m281 2 c15 -11 20 -30 23 -85 6 -97 -10 -121 -76 -121&#10;-27 0 -53 5 -60 12 -19 19 -16 167 5 190 19 22 81 24 108 4z m285 -6 c16 -16&#10;20 -33 20 -91 0 -97 -8 -109 -73 -109 -29 0 -58 5 -65 12 -19 19 -16 167 5&#10;190 23 25 87 24 113 -2z m278 4 c19 -13 22 -24 22 -90 0 -103 -7 -114 -75&#10;-114 -68 0 -75 11 -75 114 0 66 3 77 22 90 12 9 36 16 53 16 17 0 41 -7 53&#10;-16z m280 0 c20 -14 22 -24 22 -98 0 -50 -5 -87 -12 -94 -7 -7 -36 -12 -65&#10;-12 -65 0 -73 12 -73 109 0 58 4 75 20 91 24 24 77 26 108 4z m284 -1 c15 -13&#10;18 -31 18 -98 0 -50 -5 -86 -12 -93 -7 -7 -36 -12 -65 -12 -65 0 -73 12 -73&#10;109 0 58 4 75 20 91 25 25 86 27 112 3z m282 1 c20 -19 23 -173 4 -192 -7 -7&#10;-33 -12 -58 -12 -25 0 -51 5 -58 12 -8 8 -12 45 -12 100 0 72 3 89 18 97 26&#10;16 89 13 106 -5z m281 2 c15 -11 20 -30 23 -85 6 -97 -10 -121 -76 -121 -27 0&#10;-53 5 -60 12 -19 19 -16 173 4 192 19 20 84 21 109 2z m285 -6 c16 -16 20 -33&#10;20 -91 0 -97 -8 -109 -73 -109 -29 0 -58 5 -65 12 -19 19 -16 167 5 190 23 25&#10;87 24 113 -2z m280 0 c16 -16 20 -33 20 -91 0 -97 -8 -109 -73 -109 -29 0 -58&#10;5 -65 12 -7 7 -12 44 -12 94 0 74 2 84 22 98 31 22 84 20 108 -4z m278 4 c20&#10;-14 22 -24 22 -98 0 -50 -5 -87 -12 -94 -7 -7 -36 -12 -65 -12 -65 0 -73 12&#10;-73 109 0 58 4 75 20 91 24 24 77 26 108 4z m284 -1 c15 -13 18 -31 18 -98 0&#10;-50 -5 -86 -12 -93 -7 -7 -36 -12 -65 -12 -65 0 -73 12 -73 109 0 58 4 75 20&#10;91 25 25 86 27 112 3z m282 1 c20 -19 23 -173 4 -192 -7 -7 -33 -12 -60 -12&#10;-66 0 -82 24 -76 121 3 55 8 74 23 85 25 19 90 18 109 -2z m277 6 c17 -9 19&#10;-22 19 -98 0 -55 -4 -92 -12 -100 -7 -7 -33 -12 -58 -12 -25 0 -51 5 -58 12&#10;-19 19 -16 173 4 192 18 18 76 21 105 6z m289 -10 c16 -16 20 -33 20 -91 0&#10;-97 -8 -109 -73 -109 -29 0 -58 5 -65 12 -19 19 -16 167 5 190 23 25 87 24&#10;113 -2z m280 0 c16 -16 20 -33 20 -91 0 -97 -8 -109 -73 -109 -29 0 -58 5 -65&#10;12 -7 7 -12 44 -12 94 0 74 2 84 22 98 31 22 84 20 108 -4z m278 4 c19 -13 22&#10;-24 22 -90 0 -103 -7 -114 -75 -114 -68 0 -75 11 -75 114 0 66 3 77 22 90 12&#10;9 36 16 53 16 17 0 41 -7 53 -16z m284 -1 c15 -13 18 -31 18 -98 0 -50 -5 -86&#10;-12 -93 -7 -7 -36 -12 -65 -12 -65 0 -73 12 -73 109 0 58 4 75 20 91 25 25 86&#10;27 112 3z m280 0 c15 -13 18 -31 18 -98 0 -50 -5 -86 -12 -93 -7 -7 -33 -12&#10;-60 -12 -66 0 -82 24 -76 121 3 55 8 74 23 85 26 19 84 18 107 -3z m-10980&#10;-1790 c15 -13 18 -31 18 -98 0 -50 -5 -86 -12 -93 -7 -7 -36 -12 -65 -12 -65&#10;0 -73 12 -73 109 0 58 4 75 20 91 25 25 86 27 112 3z m280 0 c15 -13 18 -31&#10;18 -98 0 -50 -5 -86 -12 -93 -18 -18 -103 -15 -122 4 -12 11 -16 36 -16 90 0&#10;61 4 78 20 94 25 25 86 27 112 3z m282 1 c20 -19 23 -173 4 -192 -7 -7 -33&#10;-12 -58 -12 -25 0 -51 5 -58 12 -8 8 -12 45 -12 100 0 72 3 89 18 97 26 16 89&#10;13 106 -5z m281 2 c15 -11 20 -30 23 -85 6 -97 -10 -121 -76 -121 -27 0 -53 5&#10;-60 12 -19 19 -16 173 4 192 19 20 84 21 109 2z m285 -6 c16 -16 20 -33 20&#10;-91 0 -97 -8 -109 -73 -109 -29 0 -58 5 -65 12 -19 19 -16 167 5 190 23 25 87&#10;24 113 -2z m280 0 c16 -16 20 -33 20 -91 0 -97 -8 -109 -73 -109 -29 0 -58 5&#10;-65 12 -7 7 -12 44 -12 94 0 74 2 84 22 98 31 22 84 20 108 -4z m278 4 c20&#10;-14 22 -24 22 -98 0 -50 -5 -87 -12 -94 -7 -7 -36 -12 -65 -12 -65 0 -73 12&#10;-73 109 0 58 4 75 20 91 24 24 77 26 108 4z m284 -1 c15 -13 18 -31 18 -98 0&#10;-50 -5 -86 -12 -93 -7 -7 -36 -12 -65 -12 -65 0 -73 12 -73 109 0 58 4 75 20&#10;91 25 25 86 27 112 3z m282 1 c20 -19 23 -173 4 -192 -7 -7 -33 -12 -60 -12&#10;-66 0 -82 24 -76 121 3 55 8 74 23 85 25 19 90 18 109 -2z m277 6 c17 -9 19&#10;-22 19 -98 0 -55 -4 -92 -12 -100 -7 -7 -33 -12 -58 -12 -25 0 -51 5 -58 12&#10;-19 19 -16 173 4 192 18 18 76 21 105 6z m289 -10 c16 -16 20 -33 20 -94 0&#10;-54 -4 -79 -16 -90 -19 -19 -104 -22 -122 -4 -19 19 -16 167 5 190 23 25 87&#10;24 113 -2z m280 0 c16 -16 20 -33 20 -91 0 -97 -8 -109 -73 -109 -29 0 -58 5&#10;-65 12 -19 19 -16 167 5 190 23 25 87 24 113 -2z m278 4 c19 -13 22 -24 22&#10;-90 0 -103 -7 -114 -75 -114 -68 0 -75 11 -75 114 0 66 3 77 22 90 12 9 36 16&#10;53 16 17 0 41 -7 53 -16z m284 -1 c15 -13 18 -31 18 -98 0 -50 -5 -86 -12 -93&#10;-7 -7 -36 -12 -65 -12 -65 0 -73 12 -73 109 0 58 4 75 20 91 25 25 86 27 112&#10;3z m282 1 c20 -19 23 -173 4 -192 -7 -7 -33 -12 -60 -12 -66 0 -82 24 -76 121&#10;3 55 8 74 23 85 25 19 90 18 109 -2z m277 6 c17 -9 19 -22 19 -98 0 -55 -4&#10;-92 -12 -100 -7 -7 -33 -12 -58 -12 -25 0 -51 5 -58 12 -8 8 -12 45 -12 100 0&#10;72 3 89 18 97 22 14 78 14 103 1z m289 -10 c16 -16 20 -33 20 -88 0 -91 -15&#10;-112 -79 -112 -26 0 -52 5 -59 12 -19 19 -16 167 5 190 23 25 87 24 113 -2z&#10;m280 0 c16 -16 20 -33 20 -91 0 -97 -8 -109 -73 -109 -29 0 -58 5 -65 12 -19&#10;19 -16 167 5 190 23 25 87 24 113 -2z m278 4 c19 -13 22 -24 22 -90 0 -103 -7&#10;-114 -75 -114 -68 0 -75 11 -75 114 0 66 3 77 22 90 12 9 36 16 53 16 17 0 41&#10;-7 53 -16z m284 -1 c15 -13 18 -31 18 -98 0 -50 -5 -86 -12 -93 -7 -7 -36 -12&#10;-65 -12 -65 0 -73 12 -73 109 0 58 4 75 20 91 25 25 86 27 112 3z m280 0 c15&#10;-13 18 -31 18 -98 0 -50 -5 -86 -12 -93 -7 -7 -33 -12 -59 -12 -64 0 -79 21&#10;-79 112 0 55 4 72 20 88 25 25 86 27 112 3z m279 7 c17 -9 19 -22 19 -98 0&#10;-55 -4 -92 -12 -100 -7 -7 -33 -12 -58 -12 -25 0 -51 5 -58 12 -8 8 -12 45&#10;-12 100 0 72 3 89 18 97 22 14 78 14 103 1z m284 -4 c15 -11 20 -30 23 -85 6&#10;-97 -10 -121 -76 -121 -27 0 -53 5 -60 12 -19 19 -16 173 4 192 19 20 84 21&#10;109 2z m285 -6 c16 -16 20 -33 20 -91 0 -97 -8 -109 -73 -109 -29 0 -58 5 -65&#10;12 -19 19 -16 167 5 190 23 25 87 24 113 -2z m278 4 c19 -13 22 -24 22 -90 0&#10;-103 -7 -114 -75 -114 -68 0 -75 11 -75 114 0 66 3 77 22 90 12 9 36 16 53 16&#10;17 0 41 -7 53 -16z m284 -1 c15 -13 18 -31 18 -98 0 -50 -5 -86 -12 -93 -7 -7&#10;-36 -12 -65 -12 -65 0 -73 12 -73 109 0 58 4 75 20 91 25 25 86 27 112 3z&#10;m280 0 c15 -13 18 -31 18 -98 0 -50 -5 -86 -12 -93 -18 -18 -103 -15 -122 4&#10;-12 11 -16 36 -16 90 0 61 4 78 20 94 25 25 86 27 112 3z m282 1 c20 -19 23&#10;-173 4 -192 -7 -7 -33 -12 -58 -12 -25 0 -51 5 -58 12 -8 8 -12 45 -12 100 0&#10;72 3 89 18 97 26 16 89 13 106 -5z m281 2 c15 -11 20 -30 23 -85 6 -97 -10&#10;-121 -76 -121 -27 0 -53 5 -60 12 -19 19 -16 173 4 192 19 20 84 21 109 2z&#10;m285 -6 c16 -16 20 -33 20 -91 0 -97 -8 -109 -73 -109 -29 0 -58 5 -65 12 -19&#10;19 -16 167 5 190 23 25 87 24 113 -2z m280 0 c16 -16 20 -33 20 -91 0 -97 -8&#10;-109 -73 -109 -29 0 -58 5 -65 12 -7 7 -12 44 -12 94 0 74 2 84 22 98 31 22&#10;84 20 108 -4z m278 4 c20 -14 22 -24 22 -98 0 -50 -5 -87 -12 -94 -7 -7 -36&#10;-12 -65 -12 -65 0 -73 12 -73 109 0 58 4 75 20 91 24 24 77 26 108 4z m284 -1&#10;c15 -13 18 -31 18 -98 0 -50 -5 -86 -12 -93 -7 -7 -36 -12 -65 -12 -65 0 -73&#10;12 -73 109 0 58 4 75 20 91 25 25 86 27 112 3z m282 1 c20 -19 23 -173 4 -192&#10;-7 -7 -33 -12 -60 -12 -66 0 -82 24 -76 121 3 55 8 74 23 85 25 19 90 18 109&#10;-2z m277 6 c17 -9 19 -22 19 -98 0 -55 -4 -92 -12 -100 -7 -7 -33 -12 -58 -12&#10;-25 0 -51 5 -58 12 -19 19 -16 173 4 192 18 18 76 21 105 6z m289 -10 c16 -16&#10;20 -33 20 -94 0 -54 -4 -79 -16 -90 -19 -19 -104 -22 -122 -4 -19 19 -16 167&#10;5 190 23 25 87 24 113 -2z m280 0 c16 -16 20 -33 20 -91 0 -97 -8 -109 -73&#10;-109 -29 0 -58 5 -65 12 -19 19 -16 167 5 190 23 25 87 24 113 -2z m278 4 c19&#10;-13 22 -24 22 -90 0 -103 -7 -114 -75 -114 -68 0 -75 11 -75 114 0 66 3 77 22&#10;90 12 9 36 16 53 16 17 0 41 -7 53 -16z m284 -1 c15 -13 18 -31 18 -98 0 -50&#10;-5 -86 -12 -93 -7 -7 -36 -12 -65 -12 -65 0 -73 12 -73 109 0 58 4 75 20 91&#10;25 25 86 27 112 3z m282 1 c20 -19 23 -173 4 -192 -7 -7 -33 -12 -60 -12 -66&#10;0 -82 24 -76 121 3 55 8 74 23 85 25 19 90 18 109 -2z"/>
    </g>
</svg>
