<?xml version="1.0" encoding="UTF-8"?>
<svg version="1.1" xmlns="http://www.w3.org/2000/svg" width="400" height="400">
<path d="M0 0 C0.97971771 -0.00807175 1.95943542 -0.01614349 2.96884155 -0.02445984 C5.04138457 -0.03823761 7.11394967 -0.04898771 9.18652344 -0.05688477 C11.26113765 -0.06830318 13.33572491 -0.0885899 15.41015625 -0.1184082 C43.86541799 -0.52601799 70.89582586 5.29037415 96.7109375 17.23828125 C97.41347656 17.56199707 98.11601562 17.88571289 98.83984375 18.21923828 C113.1624503 24.90153598 126.68837386 32.93584087 138.7109375 43.23828125 C139.86806824 44.21143872 141.02565369 45.18405566 142.18359375 46.15625 C154.32436119 56.40047342 154.32436119 56.40047342 159.7109375 62.23828125 C160.24460937 62.81320313 160.77828125 63.388125 161.328125 63.98046875 C170.57629326 74.2514759 178.56684211 85.42820831 185.7109375 97.23828125 C186.09137207 97.86605469 186.47180664 98.49382812 186.86376953 99.140625 C202.62636472 125.44028026 212.76946484 156.61219169 212.9140625 187.4140625 C212.91976257 188.37869919 212.92546265 189.34333588 212.93133545 190.33720398 C212.94074291 192.37526367 212.94730241 194.41333828 212.95117188 196.45141602 C212.96078917 199.50370473 212.9918169 202.55529326 213.0234375 205.60742188 C213.11757796 222.72386079 211.06871603 238.78003683 206.5234375 255.30078125 C206.22083008 256.40510498 205.91822266 257.50942871 205.60644531 258.6472168 C202.85160298 268.33921455 199.22330742 277.25038499 194.7109375 286.23828125 C194.30891113 287.06634277 193.90688477 287.8944043 193.49267578 288.74755859 C184.62011263 306.99106732 173.68908743 322.58158036 159.7109375 337.23828125 C158.53616919 338.60636587 157.36858934 339.98068285 156.2109375 341.36328125 C131.8813693 369.19309393 94.96623006 387.18948764 59.7109375 396.23828125 C58.8873877 396.45291016 58.06383789 396.66753906 57.21533203 396.88867188 C29.08916299 403.80899466 -6.29319086 403.64749062 -34.2890625 396.23828125 C-35.83932129 395.83561035 -35.83932129 395.83561035 -37.42089844 395.42480469 C-90.19406343 381.31341351 -133.32134413 348.29945372 -161.421875 301.54296875 C-164.63549176 295.85527047 -167.57613204 290.05215064 -170.37939453 284.15234375 C-171.20027774 282.42509619 -172.0385581 280.70614282 -172.87890625 278.98828125 C-176.3175959 271.545388 -178.71632751 263.92078481 -180.9765625 256.05078125 C-181.26217041 255.07246338 -181.54777832 254.09414551 -181.84204102 253.08618164 C-186.3834551 236.65863018 -187.80664079 220.50221375 -187.73510742 203.50561523 C-187.72659808 200.43860562 -187.75549765 197.3734682 -187.78710938 194.30664062 C-187.83523024 180.56167278 -186.2617015 167.64780968 -183.2890625 154.23828125 C-183.10413742 153.39806427 -182.91921234 152.55784729 -182.72868347 151.69216919 C-175.63237309 119.8901639 -159.48275003 90.01129486 -137.2890625 66.23828125 C-136.09628539 64.86785649 -134.90848318 63.49308006 -133.7265625 62.11328125 C-113.62262984 39.22221247 -85.77386161 21.66761345 -57.2890625 11.23828125 C-56.11988281 10.79097656 -54.95070312 10.34367188 -53.74609375 9.8828125 C-36.674223 3.72481251 -18.14305372 0.14603077 0 0 Z " fill="#022330" transform="translate(187.2890625,-0.23828125)"/>
<path d="M0 0 C0.97971771 -0.00807175 1.95943542 -0.01614349 2.96884155 -0.02445984 C5.04138457 -0.03823761 7.11394967 -0.04898771 9.18652344 -0.05688477 C11.26113765 -0.06830318 13.33572491 -0.0885899 15.41015625 -0.1184082 C43.86541799 -0.52601799 70.89582586 5.29037415 96.7109375 17.23828125 C97.41347656 17.56199707 98.11601562 17.88571289 98.83984375 18.21923828 C113.1624503 24.90153598 126.68837386 32.93584087 138.7109375 43.23828125 C139.86806824 44.21143872 141.02565369 45.18405566 142.18359375 46.15625 C154.32436119 56.40047342 154.32436119 56.40047342 159.7109375 62.23828125 C160.24460937 62.81320313 160.77828125 63.388125 161.328125 63.98046875 C170.57629326 74.2514759 178.56684211 85.42820831 185.7109375 97.23828125 C186.09137207 97.86605469 186.47180664 98.49382812 186.86376953 99.140625 C202.62636472 125.44028026 212.76946484 156.61219169 212.9140625 187.4140625 C212.91976257 188.37869919 212.92546265 189.34333588 212.93133545 190.33720398 C212.94074291 192.37526367 212.94730241 194.41333828 212.95117188 196.45141602 C212.96078917 199.50370473 212.9918169 202.55529326 213.0234375 205.60742188 C213.11757796 222.72386079 211.06871603 238.78003683 206.5234375 255.30078125 C206.22083008 256.40510498 205.91822266 257.50942871 205.60644531 258.6472168 C202.85160298 268.33921455 199.22330742 277.25038499 194.7109375 286.23828125 C194.30891113 287.06634277 193.90688477 287.8944043 193.49267578 288.74755859 C184.62011263 306.99106732 173.68908743 322.58158036 159.7109375 337.23828125 C158.53616919 338.60636587 157.36858934 339.98068285 156.2109375 341.36328125 C131.8813693 369.19309393 94.96623006 387.18948764 59.7109375 396.23828125 C58.8873877 396.45291016 58.06383789 396.66753906 57.21533203 396.88867188 C29.08916299 403.80899466 -6.29319086 403.64749062 -34.2890625 396.23828125 C-35.83932129 395.83561035 -35.83932129 395.83561035 -37.42089844 395.42480469 C-90.19406343 381.31341351 -133.32134413 348.29945372 -161.421875 301.54296875 C-164.63549176 295.85527047 -167.57613204 290.05215064 -170.37939453 284.15234375 C-171.20027774 282.42509619 -172.0385581 280.70614282 -172.87890625 278.98828125 C-176.3175959 271.545388 -178.71632751 263.92078481 -180.9765625 256.05078125 C-181.26217041 255.07246338 -181.54777832 254.09414551 -181.84204102 253.08618164 C-186.3834551 236.65863018 -187.80664079 220.50221375 -187.73510742 203.50561523 C-187.72659808 200.43860562 -187.75549765 197.3734682 -187.78710938 194.30664062 C-187.83523024 180.56167278 -186.2617015 167.64780968 -183.2890625 154.23828125 C-183.10413742 153.39806427 -182.91921234 152.55784729 -182.72868347 151.69216919 C-175.63237309 119.8901639 -159.48275003 90.01129486 -137.2890625 66.23828125 C-136.09628539 64.86785649 -134.90848318 63.49308006 -133.7265625 62.11328125 C-113.62262984 39.22221247 -85.77386161 21.66761345 -57.2890625 11.23828125 C-56.11988281 10.79097656 -54.95070312 10.34367188 -53.74609375 9.8828125 C-36.674223 3.72481251 -18.14305372 0.14603077 0 0 Z M-109.2890625 74.23828125 C-110.15660156 75.04265625 -111.02414063 75.84703125 -111.91796875 76.67578125 C-136.17459078 99.86276561 -152.81062507 132.44119177 -159.2890625 165.23828125 C-159.51335937 166.3689502 -159.51335937 166.3689502 -159.7421875 167.52246094 C-168.03139171 211.34448234 -159.21115793 258.57730768 -134.4765625 295.86328125 C-132.78210547 298.34734102 -131.04785743 300.79942773 -129.2890625 303.23828125 C-128.87317871 303.81787598 -128.45729492 304.3974707 -128.02880859 304.99462891 C-102.8923634 339.56576931 -64.22018025 363.95559132 -22.2890625 372.23828125 C-21.5352832 372.3878125 -20.78150391 372.53734375 -20.00488281 372.69140625 C23.81713859 380.98061046 71.04996393 372.16037668 108.3359375 347.42578125 C110.81999727 345.73132422 113.27208398 343.99707618 115.7109375 342.23828125 C116.58032959 341.61445557 116.58032959 341.61445557 117.46728516 340.97802734 C155.6507135 313.21511172 177.67212401 272.02336386 186.4609375 226.33984375 C193.3265625 181.61792532 181.84395898 134.48445482 155.26269531 98.01367188 C150.10909907 91.07950651 144.69289251 84.47986972 138.7109375 78.23828125 C137.504375 76.93697266 137.504375 76.93697266 136.2734375 75.609375 C105.72876726 43.65565003 60.70278218 25.91588185 16.93579102 24.90405273 C-30.68054994 24.3647561 -74.87941161 41.25998023 -109.2890625 74.23828125 Z " fill="#FECB00" transform="translate(187.2890625,-0.23828125)"/>
<path d="M0 0 C8.59533244 6.75773842 16.11340621 14.72175042 23.79349232 22.47688484 C25.50061047 24.18961036 27.20840118 25.90166576 28.91682911 27.61308479 C33.37363522 32.08124978 37.82135114 36.55835441 42.26712513 41.03749275 C46.82050446 45.62176768 51.38257439 50.19737676 55.94388294 54.77375984 C64.86443528 63.72631795 73.77569132 72.68806893 82.68021107 81.65657234 C81.24488171 84.64497649 79.81627768 86.78340933 77.48733997 89.15583992 C76.83971699 89.8194503 76.192094 90.48306068 75.52484608 91.16678047 C74.47640018 92.22327042 74.47640018 92.22327042 73.40677357 93.30110359 C72.68662067 94.03028496 71.96646778 94.75946632 71.22449207 95.51074409 C69.70238209 97.04734419 68.17745961 98.5811627 66.64993763 100.11238289 C64.30860308 102.46566302 61.98656493 104.83694622 59.66458607 107.20930672 C58.18396693 108.69938428 56.70223344 110.18835557 55.21927357 111.67610359 C54.5243581 112.39055138 53.82944263 113.10499916 53.11346912 113.84109688 C52.45954182 114.48894646 51.80561451 115.13679604 51.13187122 115.80427742 C50.27488132 116.66887329 50.27488132 116.66887329 49.4005785 117.55093575 C47.68021107 118.65657234 47.68021107 118.65657234 45.76616955 118.3987112 C43.41737996 117.56306272 42.32291952 116.65831742 40.58450794 114.88798714 C39.99894627 114.29932365 39.41338459 113.71066017 38.81007862 113.1041584 C38.17940983 112.45484856 37.54874104 111.80553871 36.89896107 111.13655281 C35.88824291 110.11444458 35.88824291 110.11444458 34.85710621 109.0716877 C33.39318616 107.58964666 31.93267345 106.10423405 30.47516346 104.6158886 C28.16058364 102.25372894 25.83590572 99.9019578 23.50809193 97.55284309 C16.89062689 90.87122852 10.29127941 84.17185681 3.7002306 77.46418953 C-0.33309789 73.36094059 -4.37886935 69.27028889 -8.43209362 65.18669701 C-9.96778459 63.63433488 -11.49865566 62.07718801 -13.02437878 60.515028 C-28.97330561 44.15214896 -28.97330561 44.15214896 -50.25728893 37.28157234 C-55.71370945 37.46099042 -60.00669587 39.59410787 -64.05025768 43.19954109 C-68.80339501 48.32823495 -71.34031665 53.91637112 -71.81978893 60.90657234 C-71.04893139 78.82130164 -53.5332998 91.58432069 -41.78463268 103.28938484 C-40.29511959 104.77702909 -38.80582991 106.26489708 -37.31675243 107.75297737 C-33.42777134 111.63817 -29.53579493 115.52034815 -25.64315319 119.40187263 C-21.65917667 123.37555543 -17.67808702 127.35212823 -13.69674206 131.32844734 C-5.90722197 139.10729498 1.88547056 146.88295605 9.68021107 154.65657234 C8.30405746 157.7483637 6.72862661 159.85295987 4.33206654 162.23176765 C3.31123478 163.25237282 3.31123478 163.25237282 2.26978016 164.29359627 C1.16970127 165.3781913 1.16970127 165.3781913 0.04739857 166.48469734 C-0.70443707 167.23370308 -1.4562727 167.98270882 -2.23089123 168.7544117 C-4.63086794 171.14320254 -7.03770902 173.52494131 -9.44478893 175.90657234 C-11.07415246 177.52590403 -12.70306428 179.14569036 -14.33150768 180.76594734 C-18.32237805 184.73477844 -22.31930265 188.69743688 -26.31978893 192.65657234 C-31.11847351 188.66105608 -35.62215574 184.47948643 -39.99849987 180.02791023 C-40.62558849 179.39454247 -41.25267712 178.7611747 -41.89876842 178.10861397 C-43.24910125 176.74452206 -44.59835181 175.3793581 -45.94661236 174.01321793 C-48.08898348 171.84397226 -50.23590404 169.67932914 -52.38430309 167.51605415 C-58.48887684 161.36897026 -64.59080952 155.21934971 -70.67623425 149.05330086 C-74.41027895 145.27045428 -78.15425613 141.49768334 -81.90469646 137.73109436 C-83.32279297 136.30316881 -84.73724469 134.87161306 -86.14778423 133.43622208 C-102.08585067 117.03273008 -102.08585067 117.03273008 -123.38228893 110.21907234 C-130.7510959 111.03782867 -135.35060282 114.08954291 -140.09322643 119.68000984 C-142.9441954 124.27424645 -143.6726752 128.94869944 -143.81978893 134.28157234 C-143.89713268 135.94059578 -143.89713268 135.94059578 -143.97603893 137.63313484 C-142.52167711 151.8774536 -130.07403652 161.67784409 -120.54635143 171.01594734 C-118.89451595 172.65657425 -117.24401355 174.29854433 -115.59478283 175.94178963 C-111.27776975 180.2360361 -106.94303984 184.51194601 -102.60421276 188.78413582 C-98.16901438 193.1576494 -93.7510266 197.54847497 -89.33150768 201.93782234 C-80.67757879 210.52765338 -72.00481125 219.09818845 -63.31978893 227.65657234 C-64.78504632 230.71780444 -66.25143195 232.83316615 -68.66793346 235.23176765 C-69.68876522 236.25237282 -69.68876522 236.25237282 -70.73021984 237.29359627 C-71.83029873 238.3781913 -71.83029873 238.3781913 -72.95260143 239.48469734 C-73.70443707 240.23370308 -74.4562727 240.98270882 -75.23089123 241.7544117 C-77.63086794 244.14320254 -80.03770902 246.52494131 -82.44478893 248.90657234 C-84.07415246 250.52590403 -85.70306428 252.14569036 -87.33150768 253.76594734 C-91.32237805 257.73477844 -95.31930265 261.69743688 -99.31978893 265.65657234 C-104.99928093 260.93430375 -110.22819959 255.87850816 -115.43282604 250.64119148 C-116.31832638 249.75423088 -117.20382671 248.86727028 -118.11616039 247.95343208 C-120.02970061 246.03610009 -121.94231571 244.11789674 -123.85340214 242.19812393 C-126.88201671 239.15588737 -129.91453088 236.11755763 -132.94761181 233.07977486 C-139.93338285 226.0820044 -146.91412002 219.07921942 -153.89479351 212.07636452 C-160.29469327 205.65622938 -166.69567913 199.23718692 -173.10074145 192.82220167 C-176.10892374 189.80906962 -179.11465856 186.79352449 -182.11847389 183.77603924 C-184.43609284 181.44913735 -186.75700272 179.12552121 -189.07735729 176.80134773 C-189.89786572 175.97567299 -190.71837414 175.14999825 -191.56374645 174.29930305 C-195.8036048 170.05905903 -200.11882813 165.97963305 -204.67499161 162.07994938 C-206.65762724 160.36421335 -208.49906283 158.54232437 -210.31978893 156.65657234 C-214.14269212 152.77298815 -218.18155817 149.19789466 -222.31978893 145.65657234 C-216.51295675 138.53752007 -209.95693449 132.18282422 -203.44478893 125.71907234 C-202.26747255 124.5467803 -201.09038719 123.3742562 -199.91353893 122.20149422 C-197.05161404 119.35050252 -194.18657436 116.50267619 -191.31978893 113.65657234 C-188.43591114 115.00874072 -185.96560919 116.5540957 -183.42916393 118.47688484 C-182.72017956 119.01184578 -182.01119518 119.54680672 -181.28072643 120.09797859 C-180.55111706 120.65356453 -179.82150768 121.20915047 -179.06978893 121.78157234 C-178.32471081 122.34489265 -177.57963268 122.90821297 -176.81197643 123.48860359 C-174.97904083 124.87505488 -173.1484188 126.26445002 -171.31978893 127.65657234 C-171.64978893 126.99657234 -171.97978893 126.33657234 -172.31978893 125.65657234 C-173.31394362 114.10792305 -173.42885967 102.24307942 -168.31978893 91.65657234 C-167.9188905 90.75293953 -167.51799206 89.84930672 -167.10494518 88.91829109 C-161.49114824 77.41407533 -152.243624 68.18891592 -141.31978893 61.65657234 C-140.64303112 61.24793953 -139.96627331 60.83930672 -139.26900768 60.41829109 C-129.6457941 55.11491687 -117.06118629 53.84920157 -106.42525768 56.33235359 C-104.35872435 57.01902845 -102.33195782 57.82395073 -100.31978893 58.65657234 C-100.48478893 57.72844734 -100.64978893 56.80032234 -100.81978893 55.84407234 C-103.12000755 39.20915797 -99.81628733 22.63542378 -90.03463268 8.87141609 C-65.29694594 -23.07908136 -31.06142294 -23.66639522 0 0 Z " fill="#FDFDFD" transform="translate(270.3197889328003,83.34342765808105)"/>
</svg>
